<svg width="179" height="174" viewBox="0 0 179 174" fill="none" xmlns="http://www.w3.org/2000/svg">
<path d="M4.01864 6C5.70638 6 7.07457 4.65685 7.07457 3C7.07457 1.34315 5.70638 0 4.01864 0C2.33089 0 0.962708 1.34315 0.962708 3C0.962708 4.65685 2.33089 6 4.01864 6Z" fill="#FCF3F3"/>
<path d="M18.2795 6C19.9672 6 21.3354 4.65685 21.3354 3C21.3354 1.34315 19.9672 0 18.2795 0C16.5918 0 15.2236 1.34315 15.2236 3C15.2236 4.65685 16.5918 6 18.2795 6Z" fill="#FCF3F3"/>
<path d="M32.5405 6C34.2282 6 35.5964 4.65685 35.5964 3C35.5964 1.34315 34.2282 0 32.5405 0C30.8527 0 29.4846 1.34315 29.4846 3C29.4846 4.65685 30.8527 6 32.5405 6Z" fill="#FCF3F3"/>
<path d="M46.8015 6C48.4893 6 49.8575 4.65685 49.8575 3C49.8575 1.34315 48.4893 0 46.8015 0C45.1138 0 43.7456 1.34315 43.7456 3C43.7456 4.65685 45.1138 6 46.8015 6Z" fill="#FCF3F3"/>
<path d="M61.0625 6C62.7503 6 64.1185 4.65685 64.1185 3C64.1185 1.34315 62.7503 0 61.0625 0C59.3748 0 58.0066 1.34315 58.0066 3C58.0066 4.65685 59.3748 6 61.0625 6Z" fill="#FCF3F3"/>
<path d="M75.3236 6C77.0113 6 78.3795 4.65685 78.3795 3C78.3795 1.34315 77.0113 0 75.3236 0C73.6358 0 72.2676 1.34315 72.2676 3C72.2676 4.65685 73.6358 6 75.3236 6Z" fill="#FCF3F3"/>
<path d="M89.5846 6C91.2723 6 92.6405 4.65685 92.6405 3C92.6405 1.34315 91.2723 0 89.5846 0C87.8968 0 86.5286 1.34315 86.5286 3C86.5286 4.65685 87.8968 6 89.5846 6Z" fill="#FCF3F3"/>
<path d="M103.846 6C105.533 6 106.902 4.65685 106.902 3C106.902 1.34315 105.533 0 103.846 0C102.158 0 100.79 1.34315 100.79 3C100.79 4.65685 102.158 6 103.846 6Z" fill="#FCF3F3"/>
<path d="M118.107 6C119.794 6 121.163 4.65685 121.163 3C121.163 1.34315 119.794 0 118.107 0C116.419 0 115.051 1.34315 115.051 3C115.051 4.65685 116.419 6 118.107 6Z" fill="#FCF3F3"/>
<path d="M132.368 6C134.055 6 135.424 4.65685 135.424 3C135.424 1.34315 134.055 0 132.368 0C130.68 0 129.312 1.34315 129.312 3C129.312 4.65685 130.68 6 132.368 6Z" fill="#FCF3F3"/>
<path d="M146.629 6C148.316 6 149.685 4.65685 149.685 3C149.685 1.34315 148.316 0 146.629 0C144.941 0 143.573 1.34315 143.573 3C143.573 4.65685 144.941 6 146.629 6Z" fill="#FCF3F3"/>
<path d="M160.89 6C162.577 6 163.946 4.65685 163.946 3C163.946 1.34315 162.577 0 160.89 0C159.202 0 157.834 1.34315 157.834 3C157.834 4.65685 159.202 6 160.89 6Z" fill="#FCF3F3"/>
<path d="M175.151 6C176.838 6 178.207 4.65685 178.207 3C178.207 1.34315 176.838 0 175.151 0C173.463 0 172.095 1.34315 172.095 3C172.095 4.65685 173.463 6 175.151 6Z" fill="#FCF3F3"/>
<path d="M4.01864 20C5.70638 20 7.07457 18.6569 7.07457 17C7.07457 15.3431 5.70638 14 4.01864 14C2.33089 14 0.962708 15.3431 0.962708 17C0.962708 18.6569 2.33089 20 4.01864 20Z" fill="#FCF3F3"/>
<path d="M18.2795 20C19.9672 20 21.3354 18.6569 21.3354 17C21.3354 15.3431 19.9672 14 18.2795 14C16.5918 14 15.2236 15.3431 15.2236 17C15.2236 18.6569 16.5918 20 18.2795 20Z" fill="#FCF3F3"/>
<path d="M32.5405 20C34.2282 20 35.5964 18.6569 35.5964 17C35.5964 15.3431 34.2282 14 32.5405 14C30.8527 14 29.4846 15.3431 29.4846 17C29.4846 18.6569 30.8527 20 32.5405 20Z" fill="#FCF3F3"/>
<path d="M46.8015 20C48.4893 20 49.8575 18.6569 49.8575 17C49.8575 15.3431 48.4893 14 46.8015 14C45.1138 14 43.7456 15.3431 43.7456 17C43.7456 18.6569 45.1138 20 46.8015 20Z" fill="#FCF3F3"/>
<path d="M61.0625 20C62.7503 20 64.1185 18.6569 64.1185 17C64.1185 15.3431 62.7503 14 61.0625 14C59.3748 14 58.0066 15.3431 58.0066 17C58.0066 18.6569 59.3748 20 61.0625 20Z" fill="#FCF3F3"/>
<path d="M75.3236 20C77.0113 20 78.3795 18.6569 78.3795 17C78.3795 15.3431 77.0113 14 75.3236 14C73.6358 14 72.2676 15.3431 72.2676 17C72.2676 18.6569 73.6358 20 75.3236 20Z" fill="#FCF3F3"/>
<path d="M89.5846 20C91.2723 20 92.6405 18.6569 92.6405 17C92.6405 15.3431 91.2723 14 89.5846 14C87.8968 14 86.5286 15.3431 86.5286 17C86.5286 18.6569 87.8968 20 89.5846 20Z" fill="#FCF3F3"/>
<path d="M103.846 20C105.533 20 106.902 18.6569 106.902 17C106.902 15.3431 105.533 14 103.846 14C102.158 14 100.79 15.3431 100.79 17C100.79 18.6569 102.158 20 103.846 20Z" fill="#FCF3F3"/>
<path d="M118.107 20C119.794 20 121.163 18.6569 121.163 17C121.163 15.3431 119.794 14 118.107 14C116.419 14 115.051 15.3431 115.051 17C115.051 18.6569 116.419 20 118.107 20Z" fill="#FCF3F3"/>
<path d="M132.368 20C134.055 20 135.424 18.6569 135.424 17C135.424 15.3431 134.055 14 132.368 14C130.68 14 129.312 15.3431 129.312 17C129.312 18.6569 130.68 20 132.368 20Z" fill="#FCF3F3"/>
<path d="M146.629 20C148.316 20 149.685 18.6569 149.685 17C149.685 15.3431 148.316 14 146.629 14C144.941 14 143.573 15.3431 143.573 17C143.573 18.6569 144.941 20 146.629 20Z" fill="#FCF3F3"/>
<path d="M160.89 20C162.577 20 163.946 18.6569 163.946 17C163.946 15.3431 162.577 14 160.89 14C159.202 14 157.834 15.3431 157.834 17C157.834 18.6569 159.202 20 160.89 20Z" fill="#FCF3F3"/>
<path d="M175.151 20C176.838 20 178.207 18.6569 178.207 17C178.207 15.3431 176.838 14 175.151 14C173.463 14 172.095 15.3431 172.095 17C172.095 18.6569 173.463 20 175.151 20Z" fill="#FCF3F3"/>
<path d="M4.01864 34C5.70638 34 7.07457 32.6569 7.07457 31C7.07457 29.3431 5.70638 28 4.01864 28C2.33089 28 0.962708 29.3431 0.962708 31C0.962708 32.6569 2.33089 34 4.01864 34Z" fill="#FCF3F3"/>
<path d="M18.2795 34C19.9672 34 21.3354 32.6569 21.3354 31C21.3354 29.3431 19.9672 28 18.2795 28C16.5918 28 15.2236 29.3431 15.2236 31C15.2236 32.6569 16.5918 34 18.2795 34Z" fill="#FCF3F3"/>
<path d="M32.5405 34C34.2282 34 35.5964 32.6569 35.5964 31C35.5964 29.3431 34.2282 28 32.5405 28C30.8527 28 29.4846 29.3431 29.4846 31C29.4846 32.6569 30.8527 34 32.5405 34Z" fill="#FCF3F3"/>
<path d="M46.8015 34C48.4893 34 49.8575 32.6569 49.8575 31C49.8575 29.3431 48.4893 28 46.8015 28C45.1138 28 43.7456 29.3431 43.7456 31C43.7456 32.6569 45.1138 34 46.8015 34Z" fill="#FCF3F3"/>
<path d="M61.0625 34C62.7503 34 64.1185 32.6569 64.1185 31C64.1185 29.3431 62.7503 28 61.0625 28C59.3748 28 58.0066 29.3431 58.0066 31C58.0066 32.6569 59.3748 34 61.0625 34Z" fill="#FCF3F3"/>
<path d="M75.3236 34C77.0113 34 78.3795 32.6569 78.3795 31C78.3795 29.3431 77.0113 28 75.3236 28C73.6358 28 72.2676 29.3431 72.2676 31C72.2676 32.6569 73.6358 34 75.3236 34Z" fill="#FCF3F3"/>
<path d="M89.5846 34C91.2723 34 92.6405 32.6569 92.6405 31C92.6405 29.3431 91.2723 28 89.5846 28C87.8968 28 86.5286 29.3431 86.5286 31C86.5286 32.6569 87.8968 34 89.5846 34Z" fill="#FCF3F3"/>
<path d="M103.846 34C105.533 34 106.902 32.6569 106.902 31C106.902 29.3431 105.533 28 103.846 28C102.158 28 100.79 29.3431 100.79 31C100.79 32.6569 102.158 34 103.846 34Z" fill="#FCF3F3"/>
<path d="M118.107 34C119.794 34 121.163 32.6569 121.163 31C121.163 29.3431 119.794 28 118.107 28C116.419 28 115.051 29.3431 115.051 31C115.051 32.6569 116.419 34 118.107 34Z" fill="#FCF3F3"/>
<path d="M132.368 34C134.055 34 135.424 32.6569 135.424 31C135.424 29.3431 134.055 28 132.368 28C130.68 28 129.312 29.3431 129.312 31C129.312 32.6569 130.68 34 132.368 34Z" fill="#FCF3F3"/>
<path d="M146.629 34C148.316 34 149.685 32.6569 149.685 31C149.685 29.3431 148.316 28 146.629 28C144.941 28 143.573 29.3431 143.573 31C143.573 32.6569 144.941 34 146.629 34Z" fill="#FCF3F3"/>
<path d="M160.89 34C162.577 34 163.946 32.6569 163.946 31C163.946 29.3431 162.577 28 160.89 28C159.202 28 157.834 29.3431 157.834 31C157.834 32.6569 159.202 34 160.89 34Z" fill="#FCF3F3"/>
<path d="M175.151 34C176.838 34 178.207 32.6569 178.207 31C178.207 29.3431 176.838 28 175.151 28C173.463 28 172.095 29.3431 172.095 31C172.095 32.6569 173.463 34 175.151 34Z" fill="#FCF3F3"/>
<path d="M4.01864 48C5.70638 48 7.07457 46.6569 7.07457 45C7.07457 43.3431 5.70638 42 4.01864 42C2.33089 42 0.962708 43.3431 0.962708 45C0.962708 46.6569 2.33089 48 4.01864 48Z" fill="#FCF3F3"/>
<path d="M18.2795 48C19.9672 48 21.3354 46.6569 21.3354 45C21.3354 43.3431 19.9672 42 18.2795 42C16.5918 42 15.2236 43.3431 15.2236 45C15.2236 46.6569 16.5918 48 18.2795 48Z" fill="#FCF3F3"/>
<path d="M32.5405 48C34.2282 48 35.5964 46.6569 35.5964 45C35.5964 43.3431 34.2282 42 32.5405 42C30.8527 42 29.4846 43.3431 29.4846 45C29.4846 46.6569 30.8527 48 32.5405 48Z" fill="#FCF3F3"/>
<path d="M46.8015 48C48.4893 48 49.8575 46.6569 49.8575 45C49.8575 43.3431 48.4893 42 46.8015 42C45.1138 42 43.7456 43.3431 43.7456 45C43.7456 46.6569 45.1138 48 46.8015 48Z" fill="#FCF3F3"/>
<path d="M61.0625 48C62.7503 48 64.1185 46.6569 64.1185 45C64.1185 43.3431 62.7503 42 61.0625 42C59.3748 42 58.0066 43.3431 58.0066 45C58.0066 46.6569 59.3748 48 61.0625 48Z" fill="#FCF3F3"/>
<path d="M75.3236 48C77.0113 48 78.3795 46.6569 78.3795 45C78.3795 43.3431 77.0113 42 75.3236 42C73.6358 42 72.2676 43.3431 72.2676 45C72.2676 46.6569 73.6358 48 75.3236 48Z" fill="#FCF3F3"/>
<path d="M89.5846 48C91.2723 48 92.6405 46.6569 92.6405 45C92.6405 43.3431 91.2723 42 89.5846 42C87.8968 42 86.5286 43.3431 86.5286 45C86.5286 46.6569 87.8968 48 89.5846 48Z" fill="#FCF3F3"/>
<path d="M103.846 48C105.533 48 106.902 46.6569 106.902 45C106.902 43.3431 105.533 42 103.846 42C102.158 42 100.79 43.3431 100.79 45C100.79 46.6569 102.158 48 103.846 48Z" fill="#FCF3F3"/>
<path d="M118.107 48C119.794 48 121.163 46.6569 121.163 45C121.163 43.3431 119.794 42 118.107 42C116.419 42 115.051 43.3431 115.051 45C115.051 46.6569 116.419 48 118.107 48Z" fill="#FCF3F3"/>
<path d="M132.368 48C134.055 48 135.424 46.6569 135.424 45C135.424 43.3431 134.055 42 132.368 42C130.68 42 129.312 43.3431 129.312 45C129.312 46.6569 130.68 48 132.368 48Z" fill="#FCF3F3"/>
<path d="M146.629 48C148.316 48 149.685 46.6569 149.685 45C149.685 43.3431 148.316 42 146.629 42C144.941 42 143.573 43.3431 143.573 45C143.573 46.6569 144.941 48 146.629 48Z" fill="#FCF3F3"/>
<path d="M160.89 48C162.577 48 163.946 46.6569 163.946 45C163.946 43.3431 162.577 42 160.89 42C159.202 42 157.834 43.3431 157.834 45C157.834 46.6569 159.202 48 160.89 48Z" fill="#FCF3F3"/>
<path d="M175.151 48C176.838 48 178.207 46.6569 178.207 45C178.207 43.3431 176.838 42 175.151 42C173.463 42 172.095 43.3431 172.095 45C172.095 46.6569 173.463 48 175.151 48Z" fill="#FCF3F3"/>
<path d="M4.01864 62C5.70638 62 7.07457 60.6569 7.07457 59C7.07457 57.3431 5.70638 56 4.01864 56C2.33089 56 0.962708 57.3431 0.962708 59C0.962708 60.6569 2.33089 62 4.01864 62Z" fill="#FCF3F3"/>
<path d="M18.2795 62C19.9672 62 21.3354 60.6569 21.3354 59C21.3354 57.3431 19.9672 56 18.2795 56C16.5918 56 15.2236 57.3431 15.2236 59C15.2236 60.6569 16.5918 62 18.2795 62Z" fill="#FCF3F3"/>
<path d="M32.5405 62C34.2282 62 35.5964 60.6569 35.5964 59C35.5964 57.3431 34.2282 56 32.5405 56C30.8527 56 29.4846 57.3431 29.4846 59C29.4846 60.6569 30.8527 62 32.5405 62Z" fill="#FCF3F3"/>
<path d="M46.8015 62C48.4893 62 49.8575 60.6569 49.8575 59C49.8575 57.3431 48.4893 56 46.8015 56C45.1138 56 43.7456 57.3431 43.7456 59C43.7456 60.6569 45.1138 62 46.8015 62Z" fill="#FCF3F3"/>
<path d="M61.0625 62C62.7503 62 64.1185 60.6569 64.1185 59C64.1185 57.3431 62.7503 56 61.0625 56C59.3748 56 58.0066 57.3431 58.0066 59C58.0066 60.6569 59.3748 62 61.0625 62Z" fill="#FCF3F3"/>
<path d="M75.3236 62C77.0113 62 78.3795 60.6569 78.3795 59C78.3795 57.3431 77.0113 56 75.3236 56C73.6358 56 72.2676 57.3431 72.2676 59C72.2676 60.6569 73.6358 62 75.3236 62Z" fill="#FCF3F3"/>
<path d="M89.5846 62C91.2723 62 92.6405 60.6569 92.6405 59C92.6405 57.3431 91.2723 56 89.5846 56C87.8968 56 86.5286 57.3431 86.5286 59C86.5286 60.6569 87.8968 62 89.5846 62Z" fill="#FCF3F3"/>
<path d="M103.846 62C105.533 62 106.902 60.6569 106.902 59C106.902 57.3431 105.533 56 103.846 56C102.158 56 100.79 57.3431 100.79 59C100.79 60.6569 102.158 62 103.846 62Z" fill="#FCF3F3"/>
<path d="M118.107 62C119.794 62 121.163 60.6569 121.163 59C121.163 57.3431 119.794 56 118.107 56C116.419 56 115.051 57.3431 115.051 59C115.051 60.6569 116.419 62 118.107 62Z" fill="#FCF3F3"/>
<path d="M132.368 62C134.055 62 135.424 60.6569 135.424 59C135.424 57.3431 134.055 56 132.368 56C130.68 56 129.312 57.3431 129.312 59C129.312 60.6569 130.68 62 132.368 62Z" fill="#FCF3F3"/>
<path d="M146.629 62C148.316 62 149.685 60.6569 149.685 59C149.685 57.3431 148.316 56 146.629 56C144.941 56 143.573 57.3431 143.573 59C143.573 60.6569 144.941 62 146.629 62Z" fill="#FCF3F3"/>
<path d="M160.89 62C162.577 62 163.946 60.6569 163.946 59C163.946 57.3431 162.577 56 160.89 56C159.202 56 157.834 57.3431 157.834 59C157.834 60.6569 159.202 62 160.89 62Z" fill="#FCF3F3"/>
<path d="M175.151 62C176.838 62 178.207 60.6569 178.207 59C178.207 57.3431 176.838 56 175.151 56C173.463 56 172.095 57.3431 172.095 59C172.095 60.6569 173.463 62 175.151 62Z" fill="#FCF3F3"/>
<path d="M4.01864 76C5.70638 76 7.07457 74.6569 7.07457 73C7.07457 71.3431 5.70638 70 4.01864 70C2.33089 70 0.962708 71.3431 0.962708 73C0.962708 74.6569 2.33089 76 4.01864 76Z" fill="#FCF3F3"/>
<path d="M18.2795 76C19.9672 76 21.3354 74.6569 21.3354 73C21.3354 71.3431 19.9672 70 18.2795 70C16.5918 70 15.2236 71.3431 15.2236 73C15.2236 74.6569 16.5918 76 18.2795 76Z" fill="#FCF3F3"/>
<path d="M32.5405 76C34.2282 76 35.5964 74.6569 35.5964 73C35.5964 71.3431 34.2282 70 32.5405 70C30.8527 70 29.4846 71.3431 29.4846 73C29.4846 74.6569 30.8527 76 32.5405 76Z" fill="#FCF3F3"/>
<path d="M46.8015 76C48.4893 76 49.8575 74.6569 49.8575 73C49.8575 71.3431 48.4893 70 46.8015 70C45.1138 70 43.7456 71.3431 43.7456 73C43.7456 74.6569 45.1138 76 46.8015 76Z" fill="#FCF3F3"/>
<path d="M61.0625 76C62.7503 76 64.1185 74.6569 64.1185 73C64.1185 71.3431 62.7503 70 61.0625 70C59.3748 70 58.0066 71.3431 58.0066 73C58.0066 74.6569 59.3748 76 61.0625 76Z" fill="#FCF3F3"/>
<path d="M75.3236 76C77.0113 76 78.3795 74.6569 78.3795 73C78.3795 71.3431 77.0113 70 75.3236 70C73.6358 70 72.2676 71.3431 72.2676 73C72.2676 74.6569 73.6358 76 75.3236 76Z" fill="#FCF3F3"/>
<path d="M89.5846 76C91.2723 76 92.6405 74.6569 92.6405 73C92.6405 71.3431 91.2723 70 89.5846 70C87.8968 70 86.5286 71.3431 86.5286 73C86.5286 74.6569 87.8968 76 89.5846 76Z" fill="#FCF3F3"/>
<path d="M103.846 76C105.533 76 106.902 74.6569 106.902 73C106.902 71.3431 105.533 70 103.846 70C102.158 70 100.79 71.3431 100.79 73C100.79 74.6569 102.158 76 103.846 76Z" fill="#FCF3F3"/>
<path d="M118.107 76C119.794 76 121.163 74.6569 121.163 73C121.163 71.3431 119.794 70 118.107 70C116.419 70 115.051 71.3431 115.051 73C115.051 74.6569 116.419 76 118.107 76Z" fill="#FCF3F3"/>
<path d="M132.368 76C134.055 76 135.424 74.6569 135.424 73C135.424 71.3431 134.055 70 132.368 70C130.68 70 129.312 71.3431 129.312 73C129.312 74.6569 130.68 76 132.368 76Z" fill="#FCF3F3"/>
<path d="M146.629 76C148.316 76 149.685 74.6569 149.685 73C149.685 71.3431 148.316 70 146.629 70C144.941 70 143.573 71.3431 143.573 73C143.573 74.6569 144.941 76 146.629 76Z" fill="#FCF3F3"/>
<path d="M160.89 76C162.577 76 163.946 74.6569 163.946 73C163.946 71.3431 162.577 70 160.89 70C159.202 70 157.834 71.3431 157.834 73C157.834 74.6569 159.202 76 160.89 76Z" fill="#FCF3F3"/>
<path d="M175.151 76C176.838 76 178.207 74.6569 178.207 73C178.207 71.3431 176.838 70 175.151 70C173.463 70 172.095 71.3431 172.095 73C172.095 74.6569 173.463 76 175.151 76Z" fill="#FCF3F3"/>
<path d="M4.01864 90C5.70638 90 7.07457 88.6569 7.07457 87C7.07457 85.3431 5.70638 84 4.01864 84C2.33089 84 0.962708 85.3431 0.962708 87C0.962708 88.6569 2.33089 90 4.01864 90Z" fill="#FCF3F3"/>
<path d="M18.2795 90C19.9672 90 21.3354 88.6569 21.3354 87C21.3354 85.3431 19.9672 84 18.2795 84C16.5918 84 15.2236 85.3431 15.2236 87C15.2236 88.6569 16.5918 90 18.2795 90Z" fill="#FCF3F3"/>
<path d="M32.5405 90C34.2282 90 35.5964 88.6569 35.5964 87C35.5964 85.3431 34.2282 84 32.5405 84C30.8527 84 29.4846 85.3431 29.4846 87C29.4846 88.6569 30.8527 90 32.5405 90Z" fill="#FCF3F3"/>
<path d="M46.8015 90C48.4893 90 49.8575 88.6569 49.8575 87C49.8575 85.3431 48.4893 84 46.8015 84C45.1138 84 43.7456 85.3431 43.7456 87C43.7456 88.6569 45.1138 90 46.8015 90Z" fill="#FCF3F3"/>
<path d="M61.0625 90C62.7503 90 64.1185 88.6569 64.1185 87C64.1185 85.3431 62.7503 84 61.0625 84C59.3748 84 58.0066 85.3431 58.0066 87C58.0066 88.6569 59.3748 90 61.0625 90Z" fill="#FCF3F3"/>
<path d="M75.3236 90C77.0113 90 78.3795 88.6569 78.3795 87C78.3795 85.3431 77.0113 84 75.3236 84C73.6358 84 72.2676 85.3431 72.2676 87C72.2676 88.6569 73.6358 90 75.3236 90Z" fill="#FCF3F3"/>
<path d="M89.5846 90C91.2723 90 92.6405 88.6569 92.6405 87C92.6405 85.3431 91.2723 84 89.5846 84C87.8968 84 86.5286 85.3431 86.5286 87C86.5286 88.6569 87.8968 90 89.5846 90Z" fill="#FCF3F3"/>
<path d="M103.846 90C105.533 90 106.902 88.6569 106.902 87C106.902 85.3431 105.533 84 103.846 84C102.158 84 100.79 85.3431 100.79 87C100.79 88.6569 102.158 90 103.846 90Z" fill="#FCF3F3"/>
<path d="M118.107 90C119.794 90 121.163 88.6569 121.163 87C121.163 85.3431 119.794 84 118.107 84C116.419 84 115.051 85.3431 115.051 87C115.051 88.6569 116.419 90 118.107 90Z" fill="#FCF3F3"/>
<path d="M132.368 90C134.055 90 135.424 88.6569 135.424 87C135.424 85.3431 134.055 84 132.368 84C130.68 84 129.312 85.3431 129.312 87C129.312 88.6569 130.68 90 132.368 90Z" fill="#FCF3F3"/>
<path d="M146.629 90C148.316 90 149.685 88.6569 149.685 87C149.685 85.3431 148.316 84 146.629 84C144.941 84 143.573 85.3431 143.573 87C143.573 88.6569 144.941 90 146.629 90Z" fill="#FCF3F3"/>
<path d="M160.89 90C162.577 90 163.946 88.6569 163.946 87C163.946 85.3431 162.577 84 160.89 84C159.202 84 157.834 85.3431 157.834 87C157.834 88.6569 159.202 90 160.89 90Z" fill="#FCF3F3"/>
<path d="M175.151 90C176.838 90 178.207 88.6569 178.207 87C178.207 85.3431 176.838 84 175.151 84C173.463 84 172.095 85.3431 172.095 87C172.095 88.6569 173.463 90 175.151 90Z" fill="#FCF3F3"/>
<path d="M4.01864 104C5.70638 104 7.07457 102.657 7.07457 101C7.07457 99.3431 5.70638 98 4.01864 98C2.33089 98 0.962708 99.3431 0.962708 101C0.962708 102.657 2.33089 104 4.01864 104Z" fill="#FCF3F3"/>
<path d="M18.2795 104C19.9672 104 21.3354 102.657 21.3354 101C21.3354 99.3431 19.9672 98 18.2795 98C16.5918 98 15.2236 99.3431 15.2236 101C15.2236 102.657 16.5918 104 18.2795 104Z" fill="#FCF3F3"/>
<path d="M32.5405 104C34.2282 104 35.5964 102.657 35.5964 101C35.5964 99.3431 34.2282 98 32.5405 98C30.8527 98 29.4846 99.3431 29.4846 101C29.4846 102.657 30.8527 104 32.5405 104Z" fill="#FCF3F3"/>
<path d="M46.8015 104C48.4893 104 49.8575 102.657 49.8575 101C49.8575 99.3431 48.4893 98 46.8015 98C45.1138 98 43.7456 99.3431 43.7456 101C43.7456 102.657 45.1138 104 46.8015 104Z" fill="#FCF3F3"/>
<path d="M61.0625 104C62.7503 104 64.1185 102.657 64.1185 101C64.1185 99.3431 62.7503 98 61.0625 98C59.3748 98 58.0066 99.3431 58.0066 101C58.0066 102.657 59.3748 104 61.0625 104Z" fill="#FCF3F3"/>
<path d="M75.3236 104C77.0113 104 78.3795 102.657 78.3795 101C78.3795 99.3431 77.0113 98 75.3236 98C73.6358 98 72.2676 99.3431 72.2676 101C72.2676 102.657 73.6358 104 75.3236 104Z" fill="#FCF3F3"/>
<path d="M89.5846 104C91.2723 104 92.6405 102.657 92.6405 101C92.6405 99.3431 91.2723 98 89.5846 98C87.8968 98 86.5286 99.3431 86.5286 101C86.5286 102.657 87.8968 104 89.5846 104Z" fill="#FCF3F3"/>
<path d="M103.846 104C105.533 104 106.902 102.657 106.902 101C106.902 99.3431 105.533 98 103.846 98C102.158 98 100.79 99.3431 100.79 101C100.79 102.657 102.158 104 103.846 104Z" fill="#FCF3F3"/>
<path d="M118.107 104C119.794 104 121.163 102.657 121.163 101C121.163 99.3431 119.794 98 118.107 98C116.419 98 115.051 99.3431 115.051 101C115.051 102.657 116.419 104 118.107 104Z" fill="#FCF3F3"/>
<path d="M132.368 104C134.055 104 135.424 102.657 135.424 101C135.424 99.3431 134.055 98 132.368 98C130.68 98 129.312 99.3431 129.312 101C129.312 102.657 130.68 104 132.368 104Z" fill="#FCF3F3"/>
<path d="M146.629 104C148.316 104 149.685 102.657 149.685 101C149.685 99.3431 148.316 98 146.629 98C144.941 98 143.573 99.3431 143.573 101C143.573 102.657 144.941 104 146.629 104Z" fill="#FCF3F3"/>
<path d="M160.89 104C162.577 104 163.946 102.657 163.946 101C163.946 99.3431 162.577 98 160.89 98C159.202 98 157.834 99.3431 157.834 101C157.834 102.657 159.202 104 160.89 104Z" fill="#FCF3F3"/>
<path d="M175.151 104C176.838 104 178.207 102.657 178.207 101C178.207 99.3431 176.838 98 175.151 98C173.463 98 172.095 99.3431 172.095 101C172.095 102.657 173.463 104 175.151 104Z" fill="#FCF3F3"/>
<path d="M4.01864 118C5.70638 118 7.07457 116.657 7.07457 115C7.07457 113.343 5.70638 112 4.01864 112C2.33089 112 0.962708 113.343 0.962708 115C0.962708 116.657 2.33089 118 4.01864 118Z" fill="#FCF3F3"/>
<path d="M18.2795 118C19.9672 118 21.3354 116.657 21.3354 115C21.3354 113.343 19.9672 112 18.2795 112C16.5918 112 15.2236 113.343 15.2236 115C15.2236 116.657 16.5918 118 18.2795 118Z" fill="#FCF3F3"/>
<path d="M32.5405 118C34.2282 118 35.5964 116.657 35.5964 115C35.5964 113.343 34.2282 112 32.5405 112C30.8527 112 29.4846 113.343 29.4846 115C29.4846 116.657 30.8527 118 32.5405 118Z" fill="#FCF3F3"/>
<path d="M46.8015 118C48.4893 118 49.8575 116.657 49.8575 115C49.8575 113.343 48.4893 112 46.8015 112C45.1138 112 43.7456 113.343 43.7456 115C43.7456 116.657 45.1138 118 46.8015 118Z" fill="#FCF3F3"/>
<path d="M61.0625 118C62.7503 118 64.1185 116.657 64.1185 115C64.1185 113.343 62.7503 112 61.0625 112C59.3748 112 58.0066 113.343 58.0066 115C58.0066 116.657 59.3748 118 61.0625 118Z" fill="#FCF3F3"/>
<path d="M75.3236 118C77.0113 118 78.3795 116.657 78.3795 115C78.3795 113.343 77.0113 112 75.3236 112C73.6358 112 72.2676 113.343 72.2676 115C72.2676 116.657 73.6358 118 75.3236 118Z" fill="#FCF3F3"/>
<path d="M89.5846 118C91.2723 118 92.6405 116.657 92.6405 115C92.6405 113.343 91.2723 112 89.5846 112C87.8968 112 86.5286 113.343 86.5286 115C86.5286 116.657 87.8968 118 89.5846 118Z" fill="#FCF3F3"/>
<path d="M103.846 118C105.533 118 106.902 116.657 106.902 115C106.902 113.343 105.533 112 103.846 112C102.158 112 100.79 113.343 100.79 115C100.79 116.657 102.158 118 103.846 118Z" fill="#FCF3F3"/>
<path d="M118.107 118C119.794 118 121.163 116.657 121.163 115C121.163 113.343 119.794 112 118.107 112C116.419 112 115.051 113.343 115.051 115C115.051 116.657 116.419 118 118.107 118Z" fill="#FCF3F3"/>
<path d="M132.368 118C134.055 118 135.424 116.657 135.424 115C135.424 113.343 134.055 112 132.368 112C130.68 112 129.312 113.343 129.312 115C129.312 116.657 130.68 118 132.368 118Z" fill="#FCF3F3"/>
<path d="M146.629 118C148.316 118 149.685 116.657 149.685 115C149.685 113.343 148.316 112 146.629 112C144.941 112 143.573 113.343 143.573 115C143.573 116.657 144.941 118 146.629 118Z" fill="#FCF3F3"/>
<path d="M160.89 118C162.577 118 163.946 116.657 163.946 115C163.946 113.343 162.577 112 160.89 112C159.202 112 157.834 113.343 157.834 115C157.834 116.657 159.202 118 160.89 118Z" fill="#FCF3F3"/>
<path d="M175.151 118C176.838 118 178.207 116.657 178.207 115C178.207 113.343 176.838 112 175.151 112C173.463 112 172.095 113.343 172.095 115C172.095 116.657 173.463 118 175.151 118Z" fill="#FCF3F3"/>
<path d="M4.01864 132C5.70638 132 7.07457 130.657 7.07457 129C7.07457 127.343 5.70638 126 4.01864 126C2.33089 126 0.962708 127.343 0.962708 129C0.962708 130.657 2.33089 132 4.01864 132Z" fill="#FCF3F3"/>
<path d="M18.2795 132C19.9672 132 21.3354 130.657 21.3354 129C21.3354 127.343 19.9672 126 18.2795 126C16.5918 126 15.2236 127.343 15.2236 129C15.2236 130.657 16.5918 132 18.2795 132Z" fill="#FCF3F3"/>
<path d="M32.5405 132C34.2282 132 35.5964 130.657 35.5964 129C35.5964 127.343 34.2282 126 32.5405 126C30.8527 126 29.4846 127.343 29.4846 129C29.4846 130.657 30.8527 132 32.5405 132Z" fill="#FCF3F3"/>
<path d="M46.8015 132C48.4893 132 49.8575 130.657 49.8575 129C49.8575 127.343 48.4893 126 46.8015 126C45.1138 126 43.7456 127.343 43.7456 129C43.7456 130.657 45.1138 132 46.8015 132Z" fill="#FCF3F3"/>
<path d="M61.0625 132C62.7503 132 64.1185 130.657 64.1185 129C64.1185 127.343 62.7503 126 61.0625 126C59.3748 126 58.0066 127.343 58.0066 129C58.0066 130.657 59.3748 132 61.0625 132Z" fill="#FCF3F3"/>
<path d="M75.3236 132C77.0113 132 78.3795 130.657 78.3795 129C78.3795 127.343 77.0113 126 75.3236 126C73.6358 126 72.2676 127.343 72.2676 129C72.2676 130.657 73.6358 132 75.3236 132Z" fill="#FCF3F3"/>
<path d="M89.5846 132C91.2723 132 92.6405 130.657 92.6405 129C92.6405 127.343 91.2723 126 89.5846 126C87.8968 126 86.5286 127.343 86.5286 129C86.5286 130.657 87.8968 132 89.5846 132Z" fill="#FCF3F3"/>
<path d="M103.846 132C105.533 132 106.902 130.657 106.902 129C106.902 127.343 105.533 126 103.846 126C102.158 126 100.79 127.343 100.79 129C100.79 130.657 102.158 132 103.846 132Z" fill="#FCF3F3"/>
<path d="M118.107 132C119.794 132 121.163 130.657 121.163 129C121.163 127.343 119.794 126 118.107 126C116.419 126 115.051 127.343 115.051 129C115.051 130.657 116.419 132 118.107 132Z" fill="#FCF3F3"/>
<path d="M132.368 132C134.055 132 135.424 130.657 135.424 129C135.424 127.343 134.055 126 132.368 126C130.68 126 129.312 127.343 129.312 129C129.312 130.657 130.68 132 132.368 132Z" fill="#FCF3F3"/>
<path d="M146.629 132C148.316 132 149.685 130.657 149.685 129C149.685 127.343 148.316 126 146.629 126C144.941 126 143.573 127.343 143.573 129C143.573 130.657 144.941 132 146.629 132Z" fill="#FCF3F3"/>
<path d="M160.89 132C162.577 132 163.946 130.657 163.946 129C163.946 127.343 162.577 126 160.89 126C159.202 126 157.834 127.343 157.834 129C157.834 130.657 159.202 132 160.89 132Z" fill="#FCF3F3"/>
<path d="M175.151 132C176.838 132 178.207 130.657 178.207 129C178.207 127.343 176.838 126 175.151 126C173.463 126 172.095 127.343 172.095 129C172.095 130.657 173.463 132 175.151 132Z" fill="#FCF3F3"/>
<path d="M4.01864 146C5.70638 146 7.07457 144.657 7.07457 143C7.07457 141.343 5.70638 140 4.01864 140C2.33089 140 0.962708 141.343 0.962708 143C0.962708 144.657 2.33089 146 4.01864 146Z" fill="#FCF3F3"/>
<path d="M18.2795 146C19.9672 146 21.3354 144.657 21.3354 143C21.3354 141.343 19.9672 140 18.2795 140C16.5918 140 15.2236 141.343 15.2236 143C15.2236 144.657 16.5918 146 18.2795 146Z" fill="#FCF3F3"/>
<path d="M32.5405 146C34.2282 146 35.5964 144.657 35.5964 143C35.5964 141.343 34.2282 140 32.5405 140C30.8527 140 29.4846 141.343 29.4846 143C29.4846 144.657 30.8527 146 32.5405 146Z" fill="#FCF3F3"/>
<path d="M46.8015 146C48.4893 146 49.8575 144.657 49.8575 143C49.8575 141.343 48.4893 140 46.8015 140C45.1138 140 43.7456 141.343 43.7456 143C43.7456 144.657 45.1138 146 46.8015 146Z" fill="#FCF3F3"/>
<path d="M61.0625 146C62.7503 146 64.1185 144.657 64.1185 143C64.1185 141.343 62.7503 140 61.0625 140C59.3748 140 58.0066 141.343 58.0066 143C58.0066 144.657 59.3748 146 61.0625 146Z" fill="#FCF3F3"/>
<path d="M75.3236 146C77.0113 146 78.3795 144.657 78.3795 143C78.3795 141.343 77.0113 140 75.3236 140C73.6358 140 72.2676 141.343 72.2676 143C72.2676 144.657 73.6358 146 75.3236 146Z" fill="#FCF3F3"/>
<path d="M89.5846 146C91.2723 146 92.6405 144.657 92.6405 143C92.6405 141.343 91.2723 140 89.5846 140C87.8968 140 86.5286 141.343 86.5286 143C86.5286 144.657 87.8968 146 89.5846 146Z" fill="#FCF3F3"/>
<path d="M103.846 146C105.533 146 106.902 144.657 106.902 143C106.902 141.343 105.533 140 103.846 140C102.158 140 100.79 141.343 100.79 143C100.79 144.657 102.158 146 103.846 146Z" fill="#FCF3F3"/>
<path d="M118.107 146C119.794 146 121.163 144.657 121.163 143C121.163 141.343 119.794 140 118.107 140C116.419 140 115.051 141.343 115.051 143C115.051 144.657 116.419 146 118.107 146Z" fill="#FCF3F3"/>
<path d="M132.368 146C134.055 146 135.424 144.657 135.424 143C135.424 141.343 134.055 140 132.368 140C130.68 140 129.312 141.343 129.312 143C129.312 144.657 130.68 146 132.368 146Z" fill="#FCF3F3"/>
<path d="M146.629 146C148.316 146 149.685 144.657 149.685 143C149.685 141.343 148.316 140 146.629 140C144.941 140 143.573 141.343 143.573 143C143.573 144.657 144.941 146 146.629 146Z" fill="#FCF3F3"/>
<path d="M160.89 146C162.577 146 163.946 144.657 163.946 143C163.946 141.343 162.577 140 160.89 140C159.202 140 157.834 141.343 157.834 143C157.834 144.657 159.202 146 160.89 146Z" fill="#FCF3F3"/>
<path d="M175.151 146C176.838 146 178.207 144.657 178.207 143C178.207 141.343 176.838 140 175.151 140C173.463 140 172.095 141.343 172.095 143C172.095 144.657 173.463 146 175.151 146Z" fill="#FCF3F3"/>
<path d="M4.01864 160C5.70638 160 7.07457 158.657 7.07457 157C7.07457 155.343 5.70638 154 4.01864 154C2.33089 154 0.962708 155.343 0.962708 157C0.962708 158.657 2.33089 160 4.01864 160Z" fill="#FCF3F3"/>
<path d="M18.2795 160C19.9672 160 21.3354 158.657 21.3354 157C21.3354 155.343 19.9672 154 18.2795 154C16.5918 154 15.2236 155.343 15.2236 157C15.2236 158.657 16.5918 160 18.2795 160Z" fill="#FCF3F3"/>
<path d="M32.5405 160C34.2282 160 35.5964 158.657 35.5964 157C35.5964 155.343 34.2282 154 32.5405 154C30.8527 154 29.4846 155.343 29.4846 157C29.4846 158.657 30.8527 160 32.5405 160Z" fill="#FCF3F3"/>
<path d="M46.8015 160C48.4893 160 49.8575 158.657 49.8575 157C49.8575 155.343 48.4893 154 46.8015 154C45.1138 154 43.7456 155.343 43.7456 157C43.7456 158.657 45.1138 160 46.8015 160Z" fill="#FCF3F3"/>
<path d="M61.0625 160C62.7503 160 64.1185 158.657 64.1185 157C64.1185 155.343 62.7503 154 61.0625 154C59.3748 154 58.0066 155.343 58.0066 157C58.0066 158.657 59.3748 160 61.0625 160Z" fill="#FCF3F3"/>
<path d="M75.3236 160C77.0113 160 78.3795 158.657 78.3795 157C78.3795 155.343 77.0113 154 75.3236 154C73.6358 154 72.2676 155.343 72.2676 157C72.2676 158.657 73.6358 160 75.3236 160Z" fill="#FCF3F3"/>
<path d="M89.5846 160C91.2723 160 92.6405 158.657 92.6405 157C92.6405 155.343 91.2723 154 89.5846 154C87.8968 154 86.5286 155.343 86.5286 157C86.5286 158.657 87.8968 160 89.5846 160Z" fill="#FCF3F3"/>
<path d="M103.846 160C105.533 160 106.902 158.657 106.902 157C106.902 155.343 105.533 154 103.846 154C102.158 154 100.79 155.343 100.79 157C100.79 158.657 102.158 160 103.846 160Z" fill="#FCF3F3"/>
<path d="M118.107 160C119.794 160 121.163 158.657 121.163 157C121.163 155.343 119.794 154 118.107 154C116.419 154 115.051 155.343 115.051 157C115.051 158.657 116.419 160 118.107 160Z" fill="#FCF3F3"/>
<path d="M132.368 160C134.055 160 135.424 158.657 135.424 157C135.424 155.343 134.055 154 132.368 154C130.68 154 129.312 155.343 129.312 157C129.312 158.657 130.68 160 132.368 160Z" fill="#FCF3F3"/>
<path d="M146.629 160C148.316 160 149.685 158.657 149.685 157C149.685 155.343 148.316 154 146.629 154C144.941 154 143.573 155.343 143.573 157C143.573 158.657 144.941 160 146.629 160Z" fill="#FCF3F3"/>
<path d="M160.89 160C162.577 160 163.946 158.657 163.946 157C163.946 155.343 162.577 154 160.89 154C159.202 154 157.834 155.343 157.834 157C157.834 158.657 159.202 160 160.89 160Z" fill="#FCF3F3"/>
<path d="M175.151 160C176.838 160 178.207 158.657 178.207 157C178.207 155.343 176.838 154 175.151 154C173.463 154 172.095 155.343 172.095 157C172.095 158.657 173.463 160 175.151 160Z" fill="#FCF3F3"/>
<path d="M4.01864 174C5.70638 174 7.07457 172.657 7.07457 171C7.07457 169.343 5.70638 168 4.01864 168C2.33089 168 0.962708 169.343 0.962708 171C0.962708 172.657 2.33089 174 4.01864 174Z" fill="#FCF3F3"/>
<path d="M18.2795 174C19.9672 174 21.3354 172.657 21.3354 171C21.3354 169.343 19.9672 168 18.2795 168C16.5918 168 15.2236 169.343 15.2236 171C15.2236 172.657 16.5918 174 18.2795 174Z" fill="#FCF3F3"/>
<path d="M32.5405 174C34.2282 174 35.5964 172.657 35.5964 171C35.5964 169.343 34.2282 168 32.5405 168C30.8527 168 29.4846 169.343 29.4846 171C29.4846 172.657 30.8527 174 32.5405 174Z" fill="#FCF3F3"/>
<path d="M46.8015 174C48.4893 174 49.8575 172.657 49.8575 171C49.8575 169.343 48.4893 168 46.8015 168C45.1138 168 43.7456 169.343 43.7456 171C43.7456 172.657 45.1138 174 46.8015 174Z" fill="#FCF3F3"/>
<path d="M61.0625 174C62.7503 174 64.1185 172.657 64.1185 171C64.1185 169.343 62.7503 168 61.0625 168C59.3748 168 58.0066 169.343 58.0066 171C58.0066 172.657 59.3748 174 61.0625 174Z" fill="#FCF3F3"/>
<path d="M75.3236 174C77.0113 174 78.3795 172.657 78.3795 171C78.3795 169.343 77.0113 168 75.3236 168C73.6358 168 72.2676 169.343 72.2676 171C72.2676 172.657 73.6358 174 75.3236 174Z" fill="#FCF3F3"/>
<path d="M89.5846 174C91.2723 174 92.6405 172.657 92.6405 171C92.6405 169.343 91.2723 168 89.5846 168C87.8968 168 86.5286 169.343 86.5286 171C86.5286 172.657 87.8968 174 89.5846 174Z" fill="#FCF3F3"/>
<path d="M103.846 174C105.533 174 106.902 172.657 106.902 171C106.902 169.343 105.533 168 103.846 168C102.158 168 100.79 169.343 100.79 171C100.79 172.657 102.158 174 103.846 174Z" fill="#FCF3F3"/>
<path d="M118.107 174C119.794 174 121.163 172.657 121.163 171C121.163 169.343 119.794 168 118.107 168C116.419 168 115.051 169.343 115.051 171C115.051 172.657 116.419 174 118.107 174Z" fill="#FCF3F3"/>
<path d="M132.368 174C134.055 174 135.424 172.657 135.424 171C135.424 169.343 134.055 168 132.368 168C130.68 168 129.312 169.343 129.312 171C129.312 172.657 130.68 174 132.368 174Z" fill="#FCF3F3"/>
<path d="M146.629 174C148.316 174 149.685 172.657 149.685 171C149.685 169.343 148.316 168 146.629 168C144.941 168 143.573 169.343 143.573 171C143.573 172.657 144.941 174 146.629 174Z" fill="#FCF3F3"/>
<path d="M160.89 174C162.577 174 163.946 172.657 163.946 171C163.946 169.343 162.577 168 160.89 168C159.202 168 157.834 169.343 157.834 171C157.834 172.657 159.202 174 160.89 174Z" fill="#FCF3F3"/>
<path d="M175.151 174C176.838 174 178.207 172.657 178.207 171C178.207 169.343 176.838 168 175.151 168C173.463 168 172.095 169.343 172.095 171C172.095 172.657 173.463 174 175.151 174Z" fill="#FCF3F3"/>
</svg>
