<svg width="70" height="70" viewBox="0 0 70 70" fill="none" xmlns="http://www.w3.org/2000/svg">
<rect width="70" height="70" rx="25" fill="#FAFAFA"/>
<path d="M30.7324 28.1724L30.4257 28.9061C29.9306 30.0905 29.8062 31.3984 30.069 32.6557C30.4699 34.5741 31.9898 36.0558 33.9103 36.4004L34.0794 36.4307C34.6884 36.54 35.3119 36.54 35.921 36.4307L36.0901 36.4004C38.0105 36.0558 39.5305 34.5741 39.9314 32.6557C40.1942 31.3984 40.0697 30.0905 39.5746 28.9061L39.268 28.1724" stroke="#363853" stroke-width="2" stroke-linecap="round"/>
<path d="M47.5302 40.6436C46.6611 44.4839 43.6904 47.5011 39.8809 48.4273C36.6794 49.2057 33.3205 49.2057 30.119 48.4273C26.3096 47.5011 23.3389 44.4839 22.4698 40.6437C21.6933 37.2125 21.8822 33.6319 23.0152 30.3024L23.1836 29.8078C24.4303 26.1443 27.5448 23.44 31.333 22.7317L32.3703 22.5377C34.1085 22.2127 35.8915 22.2127 37.6297 22.5377L38.667 22.7317C42.4552 23.4399 45.5697 26.1443 46.8164 29.8078L46.9848 30.3024C48.1178 33.6319 48.3067 37.2125 47.5302 40.6436Z" stroke="#363853" stroke-width="2"/>
</svg>
