<svg width="70" height="70" viewBox="0 0 70 70" fill="none" xmlns="http://www.w3.org/2000/svg">
<path d="M60 0H10C4.47715 0 0 4.47715 0 10V60C0 65.5229 4.47715 70 10 70H60C65.5229 70 70 65.5229 70 60V10C70 4.47715 65.5229 0 60 0Z" fill="#FCF3F3"/>
<path d="M35.0003 24C33.293 23.9991 31.5778 24.3399 30.0003 25C28.4228 25.6601 27.2075 26.7794 26.0003 28C24.793 29.2206 23.6532 30.4051 23.0003 32C22.3473 33.5949 21.9994 35.2739 22.0003 37V40C21.8413 39.7406 22.0005 40.3052 22.0003 40C22.1592 40.2595 22.7301 40.8638 23.0003 41H24.0003C24.0503 42.4902 23.9399 43.9637 25.0003 45C26.0607 46.0363 27.5255 47.0001 29.0003 47H31.0003C30.7717 47.2311 31.3236 47 31.0003 47C31.2289 46.7689 32.0003 46.3268 32.0003 46V37C32.0003 36.6732 31.2289 36.2311 31.0003 36C30.7717 35.7689 31.3236 35 31.0003 35H29.0003C28.2434 34.9991 27.698 35.7034 27.0003 36C26.3025 36.2966 25.5292 36.4526 25.0003 37C25.0003 34.3858 26.1719 31.8485 28.0003 30C29.8286 28.1515 32.4146 27 35.0003 27C37.5859 27 40.1719 28.1515 42.0003 30C43.8286 31.8485 45.0003 34.3858 45.0003 37C44.4715 36.4527 43.6979 36.2966 43.0003 36C42.3027 35.7035 41.757 34.9992 41.0003 35H39.0003C38.8402 35 39.1482 35.9381 39.0003 36C38.8524 36.0619 39.1135 35.8856 39.0003 36C38.8871 36.1144 38.0615 35.8505 38.0003 36C37.939 36.1495 38.0003 36.8382 38.0003 37V46C37.939 45.8505 38.0003 46.1618 38.0003 46C38.0615 46.1495 38.8871 46.8856 39.0003 47C38.8524 46.9381 39.1135 47.1144 39.0003 47C38.8402 47 39.1482 47.0619 39.0003 47H41.0003C42.4751 47.0001 43.9399 46.0363 45.0003 45C46.0607 43.9637 45.9502 42.4902 46.0003 41H47.0003C47.2704 40.8638 47.8413 40.2595 48.0003 40C48 40.3052 48.1592 39.7406 48.0003 40V37C48.0012 35.2737 47.6533 33.595 47.0003 32C46.3472 30.405 45.2077 29.2206 44.0003 28C42.7928 26.7794 41.578 25.66 40.0003 25C38.4225 24.34 36.7078 23.9988 35.0003 24Z" fill="#F54748"/>
</svg>
