<svg width="144" height="55" viewBox="0 0 144 55" fill="none" xmlns="http://www.w3.org/2000/svg">
<rect y="1" width="53.7536" height="53.7536" rx="26.8768" fill="#F54748"/>
<path d="M17.9592 18.0059C19.8273 18.0059 21.3014 18.3885 22.3818 19.1538C23.4621 19.8965 24.0022 20.9543 24.0022 22.3272C24.0022 23.1825 23.7659 23.9477 23.2933 24.6229C22.8431 25.2981 22.2467 25.9283 21.504 26.5134C20.7613 27.0761 19.9623 27.605 19.107 28.1002C18.2518 28.5953 17.419 29.0792 16.6088 29.5518C15.8211 30.0245 15.1346 30.5196 14.5494 31.0373H22.1792C23.102 31.0373 23.6871 30.936 23.9347 30.7334C24.1823 30.5309 24.3511 30.1708 24.4411 29.6531H25.2176C25.2176 31.3636 25.2289 32.7028 25.2514 33.6706C25.2739 34.6158 25.3076 35.4486 25.3526 36.1688C25.1501 36.1238 24.7787 36.09 24.2386 36.0675C23.6984 36.045 23.0795 36.0225 22.3818 36C21.6841 36 20.9976 36 20.3224 36H9.21536V35.291C9.82304 34.6834 10.577 33.9857 11.4773 33.1979C12.4001 32.4102 13.3003 31.5324 14.1781 30.5646C15.0783 29.5743 15.8323 28.5053 16.44 27.3574C17.0477 26.2096 17.3515 24.983 17.3515 23.6776C17.3515 22.5298 17.1039 21.697 16.6088 21.1794C16.1137 20.6392 15.3597 20.3691 14.3469 20.3691C13.3566 20.3691 12.5013 20.5717 11.7811 20.9768C11.0609 21.3594 10.4082 21.9108 9.82304 22.631L9.24912 22.2259C9.78928 21.4382 10.4307 20.7292 11.1734 20.099C11.9387 19.4463 12.8727 18.9399 13.9755 18.5798C15.0783 18.1972 16.4062 18.0059 17.9592 18.0059ZM40.4006 18.0059L40.5357 18.8837L29.3274 32.4552L30.1038 30.9022H41.1434C42.0661 30.9022 42.6513 30.801 42.8989 30.5984C43.1464 30.3958 43.3152 30.0357 43.4053 29.5181H44.1818C44.1818 31.0485 44.193 32.2414 44.2155 33.0966C44.238 33.9519 44.2718 34.7059 44.3168 35.3586C44.1592 35.3135 43.8329 35.291 43.3378 35.291C42.8651 35.2685 42.3024 35.246 41.6498 35.2235C40.9971 35.201 40.3444 35.1898 39.6917 35.1898C39.039 35.1898 38.4538 35.1898 37.9362 35.1898H26.7278V34.4808L40.4006 18.0059ZM40.9408 18.0059V40.7602H36.2144V23.5763L40.4006 18.0059H40.9408Z" fill="white"/>
<path d="M78.6312 21.6235V16.9924H61V40.1478H66.0942V31.1833H77.1426V26.5523H66.0942V21.6235H78.6312Z" fill="white"/>
<path d="M100.505 31.3157V31.2495C100.505 29.9704 100.262 28.7796 99.7771 27.6769C99.2919 26.5523 98.6193 25.5819 97.7592 24.766C96.9212 23.928 95.9178 23.2774 94.749 22.8143C93.5802 22.3291 92.3122 22.0866 90.9449 22.0866C89.5556 22.0866 88.2765 22.3291 87.1077 22.8143C85.9389 23.2995 84.9245 23.9611 84.0645 24.7991C83.2044 25.6371 82.5318 26.6184 82.0466 27.7431C81.5615 28.8457 81.3189 30.0366 81.3189 31.3157V31.3818C81.3189 32.6609 81.5615 33.8628 82.0466 34.9874C82.5318 36.0901 83.1934 37.0604 84.0314 37.8984C84.8914 38.7144 85.9058 39.3649 87.0746 39.8501C88.2434 40.3132 89.5115 40.5447 90.8788 40.5447C92.2681 40.5447 93.5471 40.3022 94.7159 39.817C95.8847 39.3318 96.8992 38.6703 97.7592 37.8323C98.6193 36.9942 99.2919 36.0239 99.7771 34.9213C100.262 33.7966 100.505 32.5947 100.505 31.3157ZM95.5429 31.3818C95.5429 32.0434 95.4327 32.6719 95.2121 33.2673C95.0137 33.8407 94.7159 34.3479 94.319 34.789C93.922 35.23 93.4369 35.5829 92.8635 35.8475C92.3122 36.0901 91.6727 36.2114 90.9449 36.2114C90.2392 36.2114 89.5997 36.0791 89.0263 35.8144C88.475 35.5498 87.9898 35.1969 87.5708 34.7559C87.1518 34.2928 86.8321 33.7745 86.6115 33.2012C86.391 32.6057 86.2808 31.9772 86.2808 31.3157V31.2495C86.2808 30.5879 86.38 29.9704 86.5785 29.3971C86.799 28.8016 87.1077 28.2834 87.5047 27.8423C87.9016 27.4013 88.3758 27.0595 88.9271 26.8169C89.5005 26.5523 90.151 26.4199 90.8788 26.4199C91.5624 26.4199 92.1909 26.5523 92.7643 26.8169C93.3376 27.0815 93.8338 27.4454 94.2528 27.9085C94.6718 28.3496 94.9916 28.8678 95.2121 29.4632C95.4327 30.0366 95.5429 30.6541 95.5429 31.3157V31.3818Z" fill="white"/>
<path d="M122.471 31.3157V31.2495C122.471 29.9704 122.229 28.7796 121.744 27.6769C121.259 26.5523 120.586 25.5819 119.726 24.766C118.888 23.928 117.884 23.2774 116.716 22.8143C115.547 22.3291 114.279 22.0866 112.912 22.0866C111.522 22.0866 110.243 22.3291 109.074 22.8143C107.906 23.2995 106.891 23.9611 106.031 24.7991C105.171 25.6371 104.498 26.6184 104.013 27.7431C103.528 28.8457 103.286 30.0366 103.286 31.3157V31.3818C103.286 32.6609 103.528 33.8628 104.013 34.9874C104.498 36.0901 105.16 37.0604 105.998 37.8984C106.858 38.7144 107.872 39.3649 109.041 39.8501C110.21 40.3132 111.478 40.5447 112.845 40.5447C114.235 40.5447 115.514 40.3022 116.683 39.817C117.851 39.3318 118.866 38.6703 119.726 37.8323C120.586 36.9942 121.259 36.0239 121.744 34.9213C122.229 33.7966 122.471 32.5947 122.471 31.3157ZM117.51 31.3818C117.51 32.0434 117.399 32.6719 117.179 33.2673C116.98 33.8407 116.683 34.3479 116.286 34.789C115.889 35.23 115.404 35.5829 114.83 35.8475C114.279 36.0901 113.639 36.2114 112.912 36.2114C112.206 36.2114 111.566 36.0791 110.993 35.8144C110.442 35.5498 109.956 35.1969 109.537 34.7559C109.118 34.2928 108.799 33.7745 108.578 33.2012C108.358 32.6057 108.247 31.9772 108.247 31.3157V31.2495C108.247 30.5879 108.347 29.9704 108.545 29.3971C108.766 28.8016 109.074 28.2834 109.471 27.8423C109.868 27.4013 110.342 27.0595 110.894 26.8169C111.467 26.5523 112.118 26.4199 112.845 26.4199C113.529 26.4199 114.158 26.5523 114.731 26.8169C115.304 27.0815 115.8 27.4454 116.219 27.9085C116.638 28.3496 116.958 28.8678 117.179 29.4632C117.399 30.0366 117.51 30.6541 117.51 31.3157V31.3818Z" fill="white"/>
<path d="M143.942 40.1478V16H138.914V24.7329C138.318 24.0272 137.58 23.4097 136.698 22.8805C135.837 22.3512 134.735 22.0866 133.39 22.0866C132.331 22.0866 131.317 22.285 130.346 22.682C129.376 23.0789 128.516 23.6744 127.766 24.4683C127.038 25.2401 126.443 26.1994 125.98 27.3462C125.539 28.4708 125.318 29.772 125.318 31.2495V31.3157C125.318 32.7932 125.539 34.1053 125.98 35.2521C126.443 36.3768 127.049 37.3361 127.799 38.13C128.549 38.9018 129.409 39.4862 130.379 39.8832C131.35 40.2801 132.353 40.4786 133.39 40.4786C134.713 40.4786 135.804 40.214 136.664 39.6847C137.547 39.1334 138.296 38.4387 138.914 37.6007V40.1478H143.942ZM138.98 31.3157C138.98 32.0434 138.859 32.716 138.616 33.3335C138.396 33.9289 138.087 34.4471 137.69 34.8882C137.315 35.3072 136.863 35.638 136.334 35.8806C135.826 36.1011 135.275 36.2114 134.68 36.2114C134.084 36.2114 133.522 36.1011 132.993 35.8806C132.485 35.638 132.033 35.3072 131.636 34.8882C131.239 34.4471 130.92 33.9289 130.677 33.3335C130.457 32.716 130.346 32.0434 130.346 31.3157V31.2495C130.346 30.4997 130.457 29.8271 130.677 29.2317C130.92 28.6362 131.239 28.129 131.636 27.71C132.033 27.269 132.485 26.9382 132.993 26.7177C133.522 26.4751 134.084 26.3538 134.68 26.3538C135.275 26.3538 135.826 26.4751 136.334 26.7177C136.863 26.9382 137.315 27.269 137.69 27.71C138.087 28.129 138.396 28.6473 138.616 29.2647C138.859 29.8602 138.98 30.5218 138.98 31.2495V31.3157Z" fill="white"/>
</svg>
