<svg width="144" height="54" viewBox="0 0 144 54" fill="none" xmlns="http://www.w3.org/2000/svg">
<rect width="53.7536" height="53.7536" rx="26.8768" fill="#F54748"/>
<path d="M78.6312 20.6235V15.9924H61V39.1478H66.0942V30.1833H77.1426V25.5523H66.0942V20.6235H78.6312Z" fill="#302F3C"/>
<path d="M100.505 30.3157V30.2495C100.505 28.9704 100.262 27.7796 99.7771 26.6769C99.2919 25.5523 98.6193 24.5819 97.7592 23.766C96.9212 22.928 95.9178 22.2774 94.749 21.8143C93.5802 21.3291 92.3122 21.0866 90.9449 21.0866C89.5556 21.0866 88.2765 21.3291 87.1077 21.8143C85.9389 22.2995 84.9245 22.9611 84.0645 23.7991C83.2044 24.6371 82.5318 25.6184 82.0466 26.7431C81.5615 27.8457 81.3189 29.0366 81.3189 30.3157V30.3818C81.3189 31.6609 81.5615 32.8628 82.0466 33.9874C82.5318 35.0901 83.1934 36.0604 84.0314 36.8984C84.8914 37.7144 85.9058 38.3649 87.0746 38.8501C88.2434 39.3132 89.5115 39.5447 90.8788 39.5447C92.2681 39.5447 93.5471 39.3022 94.7159 38.817C95.8847 38.3318 96.8992 37.6703 97.7592 36.8323C98.6193 35.9942 99.2919 35.0239 99.7771 33.9213C100.262 32.7966 100.505 31.5947 100.505 30.3157ZM95.5429 30.3818C95.5429 31.0434 95.4327 31.6719 95.2121 32.2673C95.0137 32.8407 94.7159 33.3479 94.319 33.789C93.922 34.23 93.4369 34.5829 92.8635 34.8475C92.3122 35.0901 91.6727 35.2114 90.9449 35.2114C90.2392 35.2114 89.5997 35.0791 89.0263 34.8144C88.475 34.5498 87.9898 34.1969 87.5708 33.7559C87.1518 33.2928 86.8321 32.7745 86.6115 32.2012C86.391 31.6057 86.2808 30.9772 86.2808 30.3157V30.2495C86.2808 29.5879 86.38 28.9704 86.5785 28.3971C86.799 27.8016 87.1077 27.2834 87.5047 26.8423C87.9016 26.4013 88.3758 26.0595 88.9271 25.8169C89.5005 25.5523 90.151 25.4199 90.8788 25.4199C91.5624 25.4199 92.1909 25.5523 92.7643 25.8169C93.3376 26.0815 93.8338 26.4454 94.2528 26.9085C94.6718 27.3496 94.9916 27.8678 95.2121 28.4632C95.4327 29.0366 95.5429 29.6541 95.5429 30.3157V30.3818Z" fill="#302F3C"/>
<path d="M122.471 30.3157V30.2495C122.471 28.9704 122.229 27.7796 121.744 26.6769C121.259 25.5523 120.586 24.5819 119.726 23.766C118.888 22.928 117.884 22.2774 116.716 21.8143C115.547 21.3291 114.279 21.0866 112.912 21.0866C111.522 21.0866 110.243 21.3291 109.074 21.8143C107.906 22.2995 106.891 22.9611 106.031 23.7991C105.171 24.6371 104.498 25.6184 104.013 26.7431C103.528 27.8457 103.286 29.0366 103.286 30.3157V30.3818C103.286 31.6609 103.528 32.8628 104.013 33.9874C104.498 35.0901 105.16 36.0604 105.998 36.8984C106.858 37.7144 107.872 38.3649 109.041 38.8501C110.21 39.3132 111.478 39.5447 112.845 39.5447C114.235 39.5447 115.514 39.3022 116.683 38.817C117.851 38.3318 118.866 37.6703 119.726 36.8323C120.586 35.9942 121.259 35.0239 121.744 33.9213C122.229 32.7966 122.471 31.5947 122.471 30.3157ZM117.51 30.3818C117.51 31.0434 117.399 31.6719 117.179 32.2673C116.98 32.8407 116.683 33.3479 116.286 33.789C115.889 34.23 115.404 34.5829 114.83 34.8475C114.279 35.0901 113.639 35.2114 112.912 35.2114C112.206 35.2114 111.566 35.0791 110.993 34.8144C110.442 34.5498 109.956 34.1969 109.537 33.7559C109.118 33.2928 108.799 32.7745 108.578 32.2012C108.358 31.6057 108.247 30.9772 108.247 30.3157V30.2495C108.247 29.5879 108.347 28.9704 108.545 28.3971C108.766 27.8016 109.074 27.2834 109.471 26.8423C109.868 26.4013 110.342 26.0595 110.894 25.8169C111.467 25.5523 112.118 25.4199 112.845 25.4199C113.529 25.4199 114.158 25.5523 114.731 25.8169C115.304 26.0815 115.8 26.4454 116.219 26.9085C116.638 27.3496 116.958 27.8678 117.179 28.4632C117.399 29.0366 117.51 29.6541 117.51 30.3157V30.3818Z" fill="#302F3C"/>
<path d="M143.942 39.1478V15H138.914V23.7329C138.318 23.0272 137.58 22.4097 136.698 21.8805C135.837 21.3512 134.735 21.0866 133.39 21.0866C132.331 21.0866 131.317 21.285 130.346 21.682C129.376 22.0789 128.516 22.6744 127.766 23.4683C127.038 24.2401 126.443 25.1994 125.98 26.3462C125.539 27.4708 125.318 28.772 125.318 30.2495V30.3157C125.318 31.7932 125.539 33.1053 125.98 34.2521C126.443 35.3768 127.049 36.3361 127.799 37.13C128.549 37.9018 129.409 38.4862 130.379 38.8832C131.35 39.2801 132.353 39.4786 133.39 39.4786C134.713 39.4786 135.804 39.214 136.664 38.6847C137.547 38.1334 138.296 37.4387 138.914 36.6007V39.1478H143.942ZM138.98 30.3157C138.98 31.0434 138.859 31.716 138.616 32.3335C138.396 32.9289 138.087 33.4471 137.69 33.8882C137.315 34.3072 136.863 34.638 136.334 34.8806C135.826 35.1011 135.275 35.2114 134.68 35.2114C134.084 35.2114 133.522 35.1011 132.993 34.8806C132.485 34.638 132.033 34.3072 131.636 33.8882C131.239 33.4471 130.92 32.9289 130.677 32.3335C130.457 31.716 130.346 31.0434 130.346 30.3157V30.2495C130.346 29.4997 130.457 28.8271 130.677 28.2317C130.92 27.6362 131.239 27.129 131.636 26.71C132.033 26.269 132.485 25.9382 132.993 25.7177C133.522 25.4751 134.084 25.3538 134.68 25.3538C135.275 25.3538 135.826 25.4751 136.334 25.7177C136.863 25.9382 137.315 26.269 137.69 26.71C138.087 27.129 138.396 27.6473 138.616 28.2647C138.859 28.8602 138.98 29.5218 138.98 30.2495V30.3157Z" fill="#302F3C"/>
<path d="M17.9592 16.0059C19.8273 16.0059 21.3014 16.3885 22.3818 17.1538C23.4621 17.8965 24.0022 18.9543 24.0022 20.3272C24.0022 21.1825 23.7659 21.9477 23.2933 22.6229C22.8431 23.2981 22.2467 23.9283 21.504 24.5134C20.7613 25.0761 19.9623 25.605 19.107 26.1002C18.2518 26.5953 17.419 27.0792 16.6088 27.5518C15.8211 28.0245 15.1346 28.5196 14.5494 29.0373H22.1792C23.102 29.0373 23.6871 28.936 23.9347 28.7334C24.1823 28.5309 24.3511 28.1708 24.4411 27.6531H25.2176C25.2176 29.3636 25.2289 30.7028 25.2514 31.6706C25.2739 32.6158 25.3076 33.4486 25.3526 34.1688C25.1501 34.1238 24.7787 34.09 24.2386 34.0675C23.6984 34.045 23.0795 34.0225 22.3818 34C21.6841 34 20.9976 34 20.3224 34H9.21536V33.291C9.82304 32.6834 10.577 31.9857 11.4773 31.1979C12.4001 30.4102 13.3003 29.5324 14.1781 28.5646C15.0783 27.5743 15.8323 26.5053 16.44 25.3574C17.0477 24.2096 17.3515 22.983 17.3515 21.6776C17.3515 20.5298 17.1039 19.697 16.6088 19.1794C16.1137 18.6392 15.3597 18.3691 14.3469 18.3691C13.3566 18.3691 12.5013 18.5717 11.7811 18.9768C11.0609 19.3594 10.4082 19.9108 9.82304 20.631L9.24912 20.2259C9.78928 19.4382 10.4307 18.7292 11.1734 18.099C11.9387 17.4463 12.8727 16.9399 13.9755 16.5798C15.0783 16.1972 16.4062 16.0059 17.9592 16.0059ZM40.4006 16.0059L40.5357 16.8837L29.3274 30.4552L30.1038 28.9022H41.1434C42.0661 28.9022 42.6513 28.801 42.8989 28.5984C43.1464 28.3958 43.3152 28.0357 43.4053 27.5181H44.1818C44.1818 29.0485 44.193 30.2414 44.2155 31.0966C44.238 31.9519 44.2718 32.7059 44.3168 33.3586C44.1592 33.3135 43.8329 33.291 43.3378 33.291C42.8651 33.2685 42.3024 33.246 41.6498 33.2235C40.9971 33.201 40.3444 33.1898 39.6917 33.1898C39.039 33.1898 38.4538 33.1898 37.9362 33.1898H26.7278V32.4808L40.4006 16.0059ZM40.9408 16.0059V38.7602H36.2144V21.5763L40.4006 16.0059H40.9408Z" fill="white"/>
</svg>
