<svg width="70" height="70" viewBox="0 0 70 70" fill="none" xmlns="http://www.w3.org/2000/svg">
<path d="M60 0H10C4.47715 0 0 4.47715 0 10V60C0 65.5229 4.47715 70 10 70H60C65.5229 70 70 65.5229 70 60V10C70 4.47715 65.5229 0 60 0Z" fill="#FCF3F3"/>
<path d="M45 29H26C25.7894 28.9925 26.1463 29.1532 26 29C25.8537 28.8467 25 28.213 25 28C25 27.787 25.8537 28.1532 26 28C26.1463 27.8467 25.7894 27.0074 26 27H46C45.9014 27.0412 46.1067 27.0001 46 27C45.9245 27.0762 46.0986 26.9588 46 27C45.9591 27.0996 46.0755 26.9237 46 27C46.0409 26.9003 46 26.1079 46 26C46 25.6764 46.1225 26.2989 46 26C45.8775 25.7011 46.2263 25.2288 46 25C45.7737 24.7712 45.2957 24.1238 45 24C44.7043 23.8762 44.32 24 44 24H25C24.1382 24 23.6095 24.384 23 25C22.3905 25.616 22.0003 26.1287 22 27V44C22 44.8714 22.3905 45.3838 23 46C23.6095 46.6162 24.138 47 25 47H45C45.665 47.0179 46.5164 46.4618 47 46C47.4836 45.5382 47.9799 45.6722 48 45V31C47.9801 30.3276 47.4836 30.462 47 30C46.5164 29.538 45.6651 28.982 45 29ZM43 40C42.6786 40 42.2672 39.1805 42 39C41.7328 38.8195 42.123 39.3002 42 39C41.877 38.6998 41.9373 38.3187 42 38C42.0627 37.6813 41.7727 37.2297 42 37C42.2273 36.7702 42.6848 36.0634 43 36C43.3152 35.9366 43.7031 35.8756 44 36C44.2969 36.1243 43.8214 36.7298 44 37C44.1786 37.2701 45 37.675 45 38C45 38.4348 44.3037 38.692 44 39C43.6963 39.3079 43.4301 39.9986 43 40Z" fill="#F54748"/>
</svg>
