<svg width="70" height="70" viewBox="0 0 70 70" fill="none" xmlns="http://www.w3.org/2000/svg">
<path d="M60 0H10C4.47715 0 0 4.47715 0 10V60C0 65.5229 4.47715 70 10 70H60C65.5229 70 70 65.5229 70 60V10C70 4.47715 65.5229 0 60 0Z" fill="#FCF3F3"/>
<path d="M31 30C31.4656 29.5568 31.8719 29.6142 32 29C32.1282 28.3858 31.2524 27.5784 31 27C30.7476 26.4216 30.548 26.3478 30 26C29.4521 25.6522 28.6589 25 28 25C27.3411 25 26.548 25.6522 26 26C25.4521 26.3478 25.2524 26.4216 25 27C24.7476 27.5784 24.8719 28.3858 25 29C25.1282 29.6142 25.5345 29.5568 26 30C26.3096 30.2947 26.5953 30.8405 27 31C27.4047 31.1595 27.5619 31 28 31C28.4381 31 29.5953 31.1595 30 31C30.4047 30.8405 30.6905 30.2947 31 30ZM44 39C43.5337 38.5576 42.6464 38.1218 42 38C41.3537 37.8782 40.6087 37.7601 40 38C39.3914 38.2399 39.366 38.4793 39 39C38.6341 39.5207 38 40.3738 38 41C38 41.6262 38.6341 42.4793 39 43C39.366 43.5207 39.3914 43.7601 40 44C40.6087 44.2399 41.3537 44.1218 42 44C42.6464 43.8782 43.5337 43.4424 44 43C44.3101 42.7058 44.8322 42.3846 45 42C45.1679 41.6154 45 41.4164 45 41C45 40.5836 45.1679 40.3846 45 40C44.8322 39.6154 44.3101 39.2942 44 39ZM44 27L43 26C42.8453 25.8526 42.2024 26.0798 42 26C41.7977 25.9202 42.2191 26 42 26C41.7809 26 41.2024 25.9202 41 26C40.7977 26.0798 40.1547 25.8526 40 26L26 40C25.8449 40.147 26.084 39.8077 26 40C25.916 40.1923 26 40.7918 26 41C25.916 40.8077 26 41.2082 26 41C26.084 41.1923 25.8449 41.853 26 42L27 43C27.1547 43.1474 27.7977 42.9202 28 43C27.7809 43 28.2024 43.0798 28 43C28.2191 43 28.7977 43.0798 29 43C29.2024 42.9202 29.8453 43.1474 30 43L44 29C43.916 29.1923 44.1552 28.853 44 29C44.084 28.8077 44 28.2082 44 28C44 27.7918 44.084 28.1923 44 28C43.916 27.8077 44.1552 27.147 44 27Z" fill="#F54748"/>
</svg>
