<svg width="132" height="21" viewBox="0 0 132 21" fill="none" xmlns="http://www.w3.org/2000/svg">
<path d="M5.21262 12.4489H7.5649L8.74743 13.9702L9.91078 15.3253L12.1032 18.0739H9.52086L8.01234 16.2202L7.2389 15.1207L5.21262 12.4489ZM12.3014 10.4545C12.3014 11.8821 12.0308 13.0966 11.4896 14.098C10.9527 15.0994 10.2197 15.8643 9.29075 16.3928C8.36603 16.9169 7.32626 17.179 6.17143 17.179C5.00808 17.179 3.96404 16.9148 3.03933 16.3864C2.11461 15.858 1.38379 15.093 0.846857 14.0916C0.309925 13.0902 0.0414595 11.8778 0.0414595 10.4545C0.0414595 9.02699 0.309925 7.8125 0.846857 6.81108C1.38379 5.80966 2.11461 5.04687 3.03933 4.52273C3.96404 3.99432 5.00808 3.73011 6.17143 3.73011C7.32626 3.73011 8.36603 3.99432 9.29075 4.52273C10.2197 5.04687 10.9527 5.80966 11.4896 6.81108C12.0308 7.8125 12.3014 9.02699 12.3014 10.4545ZM9.4953 10.4545C9.4953 9.52983 9.3568 8.75 9.07981 8.11506C8.80708 7.48011 8.42143 6.99858 7.92285 6.67045C7.42427 6.34233 6.84047 6.17827 6.17143 6.17827C5.5024 6.17827 4.91859 6.34233 4.42001 6.67045C3.92143 6.99858 3.53365 7.48011 3.25666 8.11506C2.98393 8.75 2.84757 9.52983 2.84757 10.4545C2.84757 11.3793 2.98393 12.1591 3.25666 12.794C3.53365 13.429 3.92143 13.9105 4.42001 14.2386C4.91859 14.5668 5.5024 14.7308 6.17143 14.7308C6.84047 14.7308 7.42427 14.5668 7.92285 14.2386C8.42143 13.9105 8.80708 13.429 9.07981 12.794C9.3568 12.1591 9.4953 11.3793 9.4953 10.4545ZM20.5967 12.8196V7.18182H23.3197V17H20.7053V15.2166H20.6031C20.3815 15.7919 20.0129 16.2543 19.4972 16.6037C18.9859 16.9531 18.3616 17.1278 17.6244 17.1278C16.9681 17.1278 16.3907 16.9787 15.8921 16.6804C15.3936 16.3821 15.0036 15.9581 14.7224 15.4084C14.4454 14.8587 14.3048 14.2003 14.3005 13.4332V7.18182H17.0235V12.9474C17.0278 13.527 17.1833 13.9851 17.4901 14.3217C17.797 14.6584 18.2082 14.8267 18.7238 14.8267C19.0519 14.8267 19.3588 14.7521 19.6443 14.603C19.9298 14.4496 20.1599 14.2237 20.3346 13.9254C20.5136 13.6271 20.6009 13.2585 20.5967 12.8196ZM28.2975 17.1854C27.6711 17.1854 27.1128 17.0767 26.6228 16.8594C26.1327 16.6378 25.7449 16.3118 25.4594 15.8814C25.1782 15.4467 25.0376 14.9055 25.0376 14.2578C25.0376 13.7124 25.1377 13.2543 25.338 12.8835C25.5383 12.5128 25.811 12.2145 26.1562 11.9886C26.5013 11.7628 26.8934 11.5923 27.3323 11.4773C27.7755 11.3622 28.24 11.2812 28.7258 11.2344C29.2968 11.1747 29.757 11.1193 30.1064 11.0682C30.4559 11.0128 30.7094 10.9318 30.8671 10.8253C31.0248 10.7187 31.1036 10.5611 31.1036 10.3523V10.3139C31.1036 9.90909 30.9758 9.59588 30.7201 9.37429C30.4687 9.1527 30.1107 9.0419 29.6462 9.0419C29.1562 9.0419 28.7662 9.15057 28.4765 9.3679C28.1867 9.58097 27.9949 9.84943 27.9012 10.1733L25.3827 9.96875C25.5106 9.37216 25.762 8.85653 26.137 8.42188C26.512 7.98295 26.9956 7.64631 27.588 7.41193C28.1846 7.1733 28.8749 7.05398 29.659 7.05398C30.2045 7.05398 30.7265 7.1179 31.2251 7.24574C31.7279 7.37358 32.1732 7.57173 32.561 7.8402C32.953 8.10866 33.262 8.45384 33.4878 8.87571C33.7137 9.29332 33.8266 9.79403 33.8266 10.3778V17H31.2442V15.6385H31.1675C31.0099 15.9453 30.7989 16.2159 30.5347 16.4503C30.2705 16.6804 29.953 16.8615 29.5823 16.9936C29.2116 17.1214 28.7833 17.1854 28.2975 17.1854ZM29.0773 15.3061C29.4779 15.3061 29.8316 15.2273 30.1384 15.0696C30.4452 14.9077 30.686 14.6903 30.8607 14.4176C31.0354 14.1449 31.1228 13.8359 31.1228 13.4908V12.4489C31.0376 12.5043 30.9204 12.5554 30.7712 12.6023C30.6263 12.6449 30.4623 12.6854 30.279 12.7237C30.0958 12.7578 29.9126 12.7898 29.7293 12.8196C29.5461 12.8452 29.3799 12.8686 29.2307 12.8899C28.9111 12.9368 28.632 13.0114 28.3934 13.1136C28.1547 13.2159 27.9694 13.3544 27.8373 13.5291C27.7052 13.6996 27.6391 13.9126 27.6391 14.1683C27.6391 14.5391 27.7733 14.8224 28.0418 15.0185C28.3145 15.2102 28.6597 15.3061 29.0773 15.3061ZM38.6622 3.90909V17H35.9392V3.90909H38.6622ZM40.8435 17V7.18182H43.5665V17H40.8435ZM42.2114 5.91619C41.8066 5.91619 41.4593 5.78196 41.1695 5.51349C40.884 5.24077 40.7412 4.91477 40.7412 4.53551C40.7412 4.16051 40.884 3.83878 41.1695 3.57031C41.4593 3.29758 41.8066 3.16122 42.2114 3.16122C42.6162 3.16122 42.9614 3.29758 43.2469 3.57031C43.5367 3.83878 43.6816 4.16051 43.6816 4.53551C43.6816 4.91477 43.5367 5.24077 43.2469 5.51349C42.9614 5.78196 42.6162 5.91619 42.2114 5.91619ZM50.9701 7.18182V9.22727H45.0574V7.18182H50.9701ZM46.3998 4.82955H49.1228V13.983C49.1228 14.2344 49.1611 14.4304 49.2378 14.571C49.3145 14.7074 49.4211 14.8033 49.5574 14.8587C49.6981 14.9141 49.86 14.9418 50.0432 14.9418C50.1711 14.9418 50.2989 14.9311 50.4268 14.9098C50.5546 14.8842 50.6526 14.8651 50.7208 14.8523L51.1491 16.8786C51.0127 16.9212 50.8209 16.9702 50.5738 17.0256C50.3266 17.0852 50.0262 17.1214 49.6725 17.1342C49.0162 17.1598 48.441 17.0724 47.9466 16.8722C47.4566 16.6719 47.0752 16.3608 46.8025 15.9389C46.5297 15.517 46.3955 14.9844 46.3998 14.3409V4.82955ZM54.425 20.6818C54.0798 20.6818 53.7559 20.6541 53.4534 20.5987C53.1551 20.5476 52.9079 20.4815 52.7119 20.4006L53.3256 18.3679C53.6452 18.4659 53.9328 18.5192 54.1885 18.5277C54.4484 18.5362 54.6721 18.4766 54.8596 18.3487C55.0514 18.2209 55.2069 18.0036 55.3263 17.6967L55.4861 17.2812L51.964 7.18182H54.8277L56.8604 14.392H56.9626L59.0145 7.18182H61.8973L58.0812 18.0611C57.898 18.5895 57.6487 19.0497 57.3334 19.4418C57.0223 19.8381 56.6281 20.1428 56.1508 20.3558C55.6736 20.5732 55.0983 20.6818 54.425 20.6818ZM67.5079 17V3.90909H76.1755V6.19105H70.2757V9.31037H75.6002V11.5923H70.2757V17H67.5079ZM81.7014 17.1918C80.7085 17.1918 79.8499 16.9808 79.1254 16.5589C78.4053 16.1328 77.8492 15.5405 77.4571 14.782C77.0651 14.0192 76.8691 13.1349 76.8691 12.1293C76.8691 11.1151 77.0651 10.2287 77.4571 9.47017C77.8492 8.70739 78.4053 8.11506 79.1254 7.69318C79.8499 7.26705 80.7085 7.05398 81.7014 7.05398C82.6943 7.05398 83.5509 7.26705 84.271 7.69318C84.9955 8.11506 85.5537 8.70739 85.9458 9.47017C86.3378 10.2287 86.5338 11.1151 86.5338 12.1293C86.5338 13.1349 86.3378 14.0192 85.9458 14.782C85.5537 15.5405 84.9955 16.1328 84.271 16.5589C83.5509 16.9808 82.6943 17.1918 81.7014 17.1918ZM81.7142 15.0824C82.1659 15.0824 82.5431 14.9545 82.8456 14.6989C83.1482 14.4389 83.3762 14.0852 83.5296 13.6378C83.6872 13.1903 83.7661 12.6811 83.7661 12.1101C83.7661 11.5391 83.6872 11.0298 83.5296 10.5824C83.3762 10.1349 83.1482 9.78125 82.8456 9.52131C82.5431 9.26136 82.1659 9.13139 81.7142 9.13139C81.2583 9.13139 80.8747 9.26136 80.5637 9.52131C80.2568 9.78125 80.0246 10.1349 79.8669 10.5824C79.7135 11.0298 79.6368 11.5391 79.6368 12.1101C79.6368 12.6811 79.7135 13.1903 79.8669 13.6378C80.0246 14.0852 80.2568 14.4389 80.5637 14.6989C80.8747 14.9545 81.2583 15.0824 81.7142 15.0824ZM92.7405 17.1918C91.7476 17.1918 90.8889 16.9808 90.1645 16.5589C89.4443 16.1328 88.8882 15.5405 88.4962 14.782C88.1041 14.0192 87.9081 13.1349 87.9081 12.1293C87.9081 11.1151 88.1041 10.2287 88.4962 9.47017C88.8882 8.70739 89.4443 8.11506 90.1645 7.69318C90.8889 7.26705 91.7476 7.05398 92.7405 7.05398C93.7334 7.05398 94.5899 7.26705 95.3101 7.69318C96.0345 8.11506 96.5928 8.70739 96.9848 9.47017C97.3769 10.2287 97.5729 11.1151 97.5729 12.1293C97.5729 13.1349 97.3769 14.0192 96.9848 14.782C96.5928 15.5405 96.0345 16.1328 95.3101 16.5589C94.5899 16.9808 93.7334 17.1918 92.7405 17.1918ZM92.7533 15.0824C93.205 15.0824 93.5821 14.9545 93.8847 14.6989C94.1872 14.4389 94.4152 14.0852 94.5686 13.6378C94.7263 13.1903 94.8051 12.6811 94.8051 12.1101C94.8051 11.5391 94.7263 11.0298 94.5686 10.5824C94.4152 10.1349 94.1872 9.78125 93.8847 9.52131C93.5821 9.26136 93.205 9.13139 92.7533 9.13139C92.2973 9.13139 91.9138 9.26136 91.6027 9.52131C91.2959 9.78125 91.0637 10.1349 90.906 10.5824C90.7526 11.0298 90.6759 11.5391 90.6759 12.1101C90.6759 12.6811 90.7526 13.1903 90.906 13.6378C91.0637 14.0852 91.2959 14.4389 91.6027 14.6989C91.9138 14.9545 92.2973 15.0824 92.7533 15.0824ZM102.961 17.1598C102.216 17.1598 101.54 16.968 100.935 16.5845C100.334 16.1967 99.857 15.6278 99.5033 14.8778C99.1539 14.1236 98.9791 13.1989 98.9791 12.1037C98.9791 10.9787 99.1602 10.0433 99.5225 9.29759C99.8847 8.54759 100.366 7.98722 100.967 7.61648C101.572 7.24148 102.235 7.05398 102.955 7.05398C103.505 7.05398 103.963 7.14773 104.329 7.33523C104.7 7.51847 104.998 7.74858 105.224 8.02557C105.454 8.2983 105.629 8.56676 105.748 8.83097H105.831V3.90909H108.548V17H105.863V15.4276H105.748C105.62 15.7003 105.439 15.9709 105.205 16.2393C104.975 16.5036 104.674 16.723 104.304 16.8977C103.937 17.0724 103.49 17.1598 102.961 17.1598ZM103.824 14.9929C104.263 14.9929 104.634 14.8736 104.937 14.6349C105.243 14.392 105.478 14.0533 105.64 13.6186C105.806 13.1839 105.889 12.6747 105.889 12.0909C105.889 11.5071 105.808 11 105.646 10.5696C105.484 10.1392 105.25 9.80682 104.943 9.57244C104.636 9.33807 104.263 9.22088 103.824 9.22088C103.377 9.22088 103 9.34233 102.693 9.58523C102.386 9.82812 102.154 10.1648 101.996 10.5952C101.839 11.0256 101.76 11.5241 101.76 12.0909C101.76 12.6619 101.839 13.1669 101.996 13.6058C102.158 14.0405 102.39 14.3814 102.693 14.6286C103 14.8714 103.377 14.9929 103.824 14.9929ZM113.866 18.26H131.866V0.26H113.866V18.26Z" fill="#F54748"/>
</svg>
