<svg width="70" height="70" viewBox="0 0 70 70" fill="none" xmlns="http://www.w3.org/2000/svg">
<path d="M60 0H10C4.47715 0 0 4.47715 0 10V60C0 65.5229 4.47715 70 10 70H60C65.5229 70 70 65.5229 70 60V10C70 4.47715 65.5229 0 60 0Z" fill="#FCF3F3"/>
<path d="M51 40H50V34C49.9987 33.3542 50.4642 33.4562 50 33L44 28C43.5368 27.5428 43.6558 27.0013 43 27H40V24C40 23.3536 40.464 23.4572 40 23C39.536 22.5428 38.6563 22.0003 38 22H21C20.3435 22 20.4642 22.5428 20 23C19.5358 23.4572 19 23.3534 19 24V41C19 41.6466 19.5358 41.5428 20 42C20.4642 42.4572 20.3435 43 21 43H22C22 44.2929 23.0717 46.0858 24 47C24.9283 47.9142 25.6872 48 27 48C28.3128 48 30.0717 47.9142 31 47C31.9283 46.0858 32 44.2929 32 43H39C39 44.2929 39.0717 46.0858 40 47C40.9283 47.9142 42.6872 48 44 48C45.3128 48 46.0717 47.9142 47 47C47.9283 46.0858 49 44.2929 49 43H51C51.2186 42.9995 51.8453 43.1521 52 43C52.1547 42.8479 51.9992 42.2153 52 42V41C51.9995 40.7845 52.1547 40.1523 52 40C51.8453 39.8477 51.2188 40.0005 51 40ZM27 46C26.5104 46 26.4071 45.2679 26 45C25.5929 44.7321 25.1873 44.4455 25 44C24.8127 43.5545 24.9044 43.4729 25 43C25.0956 42.5271 24.6537 41.3409 25 41C25.3463 40.6591 26.5197 41.094 27 41C27.4803 40.906 27.5477 40.8153 28 41C28.4523 41.1847 28.7281 41.599 29 42C29.2719 42.401 30.0002 42.5178 30 43C29.9997 43.6464 29.4642 44.543 29 45C28.5358 45.457 27.6563 46 27 46ZM44 46C43.5104 46 42.4071 45.2679 42 45C41.5929 44.7321 41.1873 44.4455 41 44C40.8127 43.5545 40.9044 43.4729 41 43C41.0956 42.5271 41.6537 41.3409 42 41C42.3463 40.6591 42.5197 41.094 43 41C43.4803 40.906 44.5477 40.8153 45 41C45.4523 41.1847 45.7281 41.599 46 42C46.2719 42.401 46.0002 42.5178 46 43C45.9997 43.6464 45.4642 44.543 45 45C44.5358 45.457 44.6563 46 44 46ZM48 35H40V29H43L48 34V35Z" fill="#F54748"/>
</svg>
